<svg id="Capa_1" enable-background="new 0 0 512 512" height="512" viewBox="0 0 512 512" width="512" xmlns="http://www.w3.org/2000/svg"><g><g><path d="m486.382 459.681v-114.638c0-38.337-29.136-69.869-66.472-73.66-2.489-.253-5.015.362-7.57.362-40.893 0-72.361 32.916-72.361 73.809l.002 113.644z" fill="#855b51"/><path d="m420.34 271.43c-37.13 3.99-66.04 35.42-66.04 73.61v113.79l-16 .37v-114.16c0-40.89 33.15-74.04 74.04-74.04 2.7 0 5.37.14 8 .43z" fill="#724d44"/><path d="m433.003 501.39v-77.58l-3.067-9.065 3.067-26.629h-41.328l1.75 42.124-1.75 14v57.15l20.657 3.11z" fill="#c48958"/><path d="m390.872 432.191-40.617 16.079 4.932 56.229h57.144l-2.982-3.281c-14.235-15.664-17.009-35.897-17.547-56.979-.117-4.638-.93-7.366-.93-12.048z" fill="#ffd163"/><path d="m391.81 444.24-.13.05-40.32 16.57-1.19-13.56 41.51-17.06 1.745 6.973z" fill="#ffb65f"/><path d="m475.418 447.716-42.415-17.477c0 25.612-.277 51.953-17.828 71.152l-2.843 3.11h68.568c5.529 0 10.01-4.482 10.01-10.01v-23.636c0-10.14-6.117-19.277-15.492-23.139z" fill="#ffd163"/><path d="m391.68 388.12h-.008s.005 35.633.008 35.634c0 0 .01 15.846.13 20.486l10.391-4.271c1.5-.617 2.479-2.078 2.479-3.7v-4.441c0-1.238 1.114-2.169 2.335-1.963 1.78.301 3.552.454 5.307.454 7.1 0 14.11-2.4 20.67-6.51v-35.69h-41.312z" fill="#b27a49"/><path d="m367.979 353.979c.089 3.602-1.295 6.386-.538 10.064 5.47 26.573 27.012 53.277 44.892 53.277 20.671 0 46.203-35.644 46.203-65.551 0-18.51-6.243-34.851-18.092-44.617-2.466-2.032-4.495-1.844-7.44-3.267-.928-.449-2.02.073-2.27 1.073-5.526 22.077-24.255 40.187-47.095 44.936l-14.395 2.494c-.746.159-1.265 1.591-1.265 1.591z" fill="#c48958"/><path d="m386.647 359.785c26.379-5.688 47.678-27.086 53.79-52.626-2.466-2.032-5.168-3.787-8.113-5.21-.928-.448-2.02.073-2.27 1.073-5.526 22.077-23.92 40.325-46.759 45.073l-15.885 3.399c-.745.159-1.274.823-1.265 1.584v.007c.089 3.602.544 7.278 1.301 10.956z" fill="#b27a49"/><path d="m178.232 454.099-57.907-20.631c-10.901 12.583-29.79 11.14-40.686-1.447l-41.8 17.371c-9.374 3.863-15.749 11.323-15.749 21.462v22.636c0 5.529 4.482 10.01 10.01 10.01l1.99 1h44.9l20.01-2.564 21.32 2.564h36.94l20.972-3.713z" fill="#bae6ef"/><path d="m118.872 398.126h-37.872l.17 30.065c3.598 4.153 5.969 9 10.826 10.411 9.851 2.862 21.015.082 28.316-8.339l.013-.015v-15.878z" fill="#f2d1a5"/><path d="m88.149 438.745-43.547 19.709-3.071 1.286c-4.52 1.86-7.44 6.22-7.44 11.11v33.65h-2.991c-5.53 0-10.01-4.48-10.01-10.01v-23.64c0-10.13 6.12-19.27 15.49-23.13l40.505-15.699c2.823 2.821 11.064 6.724 11.064 6.724z" fill="#94d8e6"/><path d="m167.54 449.69-47.22 54.81h-41.33l-34.386-46.048-6.668-10.175 22.638-7.872 18.426-10.165c10.89 12.59 30.42 12.59 41.32.01v-.01z" fill="#f8f7f7"/><path d="m92 398.13h-13v16.25 15.88 2.027l10.33 6.426s2.333-.271 2.67-.133v-16.713c0-1.227 1.095-2.156 2.307-1.968 1.782.277 3.565.421 5.343.421 6.93 0 13.96-2.16 20.67-5.95v-16.24z" fill="#f2bb88"/><g><path d="m92 438.59v.01l-47.4 19.85-8.01-10.73 42.41-17.48c.689.342 3.435 5.318 13 8.35z" fill="#e8e8e8"/></g><path d="m147.247 342.061c0-31.454-16.14-50.635-47.593-50.635s-47.594 19.181-47.594 50.635c0 6.642.198 13.39 2.293 19.901 7.825 24.323 28.163 45.358 45.3 45.358 16.993 0 37.11-20.654 45.085-44.694 2.229-6.716 2.509-13.697 2.509-20.565z" fill="#f2d1a5"/><path d="m126.508 297.73c-3.347.375-6.474 1.211-9.108 2.35l-.038.101c-.239-2.476-.878-4.795-1.933-6.872-4.772-1.237-10.032-1.884-15.775-1.884-31.454 0-48.593 19.181-48.593 50.635 0 6.642 1.209 13.386 3.304 19.898.697-.633 1.451-1.342 2.273-2.181 6.229-6.358 16.703-16.905 29.057-22.298 7.555-3.298 13.949-4.208 18.892-8.509.965-.84 2.429-.614 3.073.491 2.254 3.868 7.266 9.187 17.384 15.198 8.626 5.125 15.957 12.383 19.695 17.966 2.228-6.716 3.509-13.696 3.509-20.564-.001-20.832-7.526-36.272-21.74-44.331z" fill="#f2bb88"/><path d="m117.48 288.17c3.553-1.541 7.941-3.615 12.63-3.656 7.214-.063 14.961 2.115 20.741 7.968 18.92 19.157 8.986 48.698 1.719 61.665-.677 1.207-2.331 1.395-3.247.358-3.636-4.114-12.585-13.525-24.596-21.214-3.908-2.502-7.278-5.441-10.031-8.62-3.204-3.699-4.208-8.522-5.612-12.554z" fill="#8e868e"/><path d="m128.1 303.28c-2.69 7.95-7.32 15.24-13.39 21.38-3.22-3.69-5.59-7.71-6.99-11.74l9.68-25.84c3.56-1.54 8.02-2.53 12.71-2.57.82 5.92.16 12.35-2.01 18.77z" fill="#766d78"/><path d="m114.632 278.898c-3.308-5.167-9.22-8.426-16.476-9.582-11.616-1.85-26.125 3.516-39.454 13.258-25.128 18.365-19.988 54.345-12.106 70.319.673 1.365 2.537 1.533 3.429.3 1.374-1.897 3.553-3.294 6.612-6.417 6.229-6.358 16.077-14.21 30.057-19.298 25.205-9.173 36.54-35.142 27.938-48.58z" fill="#8e868e"/><path d="m98.27 269.34c-8.8 1.26-18.34 4.99-27.12 11.41-21.8 15.93-20.41 47.51-14.51 66.03-3.06 3.12-5.25 5.88-6.62 7.78-.89 1.23-2.76 1.06-3.43-.3-7.88-15.98-13.57-55.14 11.56-73.51 13.38-9.78 28.49-13.31 40.12-11.41z" fill="#766d78"/><path d="m150.021 201.298-23.235-.129c-2.814 0-5.516 1.106-7.523 3.08l-15.65 15.381c-2.098 2.064-5.467 2.052-7.55-.027l-15.333-15.3c-2.011-2.007-4.736-3.134-7.577-3.134h-24.13c-10.663 0-19.307-8.644-19.307-19.307v-67.595c0-8.455 4.435-16.641 12.002-19.254 1.976-.682 4.098-1.053 6.306-1.053h122.911v88.903c0 2.21-.371 4.334-1.055 6.311-2.616 7.563-11.406 12.124-19.859 12.124z" fill="#f8f7f7"/><path d="m169.87 189.17c-2.61 7.56-9.79 13-18.24 13h-23.84c-2.82 0-5.52 1.11-7.53 3.08l-16.65 16.38c-2.09 2.06-5.46 2.05-7.55-.03l-16.33-16.3c-2.01-2-4.74-3.13-7.58-3.13h-24.13c-10.66 0-19.3-8.65-19.3-19.31v-69.59c0-8.46 5.43-15.65 13-18.25v87.84c0 3.48 2.82 6.31 6.3 6.31h24.13c6.33 0 12.28 2.46 16.76 6.93l8.17 8.16c1.56 1.55 4.07 1.56 5.64.02l8.43-8.3c4.43-4.36 10.41-6.81 16.64-6.81z" fill="#e8e8e8"/><g><path d="m98.246 133.356c.891.84 2.289.815 3.185-.02 3.191-2.975 7.512-4.798 12.237-4.784 9.692.029 17.601 7.987 17.463 17.552-.181 12.63-13.658 23.437-22.868 29.359-3.254 2.092-5.968 2.266-7.383 3.004-.66.344-1.445.352-2.112.023-5.514-2.721-29.24-14.806-28.885-32.426.143-7.103 3.618-13.049 9.745-15.745.635-.279 1.272-.922 1.964-1.119 1.439-.411 2.947-.637 4.498-.648 4.726-.033 8.995 1.824 12.156 4.804z" fill="#df646e"/><path d="m108.261 175.46c-3.25 2.09-5.98 3.57-7.39 4.31-.66.35-1.44.36-2.11.03-5.52-2.72-30.6-16.08-30.24-33.7.16-7.84 5.7-14.79 13.07-16.9-2.47 3.03-3.98 6.85-4.07 10.9-.29 14.27 20.06 28.87 30.74 35.36z" fill="#dc4955"/></g><path d="m462.764 201.169h-23.841c-2.814 0-5.516 1.106-7.523 3.08l-15.65 16.381c-2.098 2.064-5.467 2.052-7.55-.027l-15.333-16.3c-2.011-2.007-4.736-3.134-7.577-3.134h-24.13c-10.663 0-19.307-8.644-19.307-19.307l1.275-85.926 19.472-1.977h101.164c10.663 0 19.307 8.644 19.307 19.307v69.595c0 2.21-.371 4.333-1.055 6.311-2.614 7.565-10.799 11.997-19.252 11.997z" fill="#f8f7f7"/><g><path d="m410.385 133.356c.891.84 2.289.815 3.185-.02 3.191-2.975 7.512-4.798 12.237-4.784 9.692.029 17.601 7.987 17.463 17.552-.181 12.63-13.658 23.437-22.868 29.359-3.254 2.092-5.968 2.266-7.383 3.004-.66.344-1.445.352-2.112.023-5.514-2.721-29.24-14.806-28.885-32.426.143-7.103 3.618-13.049 9.745-15.745.635-.279 1.272-.922 1.964-1.119 1.439-.411 2.947-.637 4.498-.648 4.726-.033 8.995 1.824 12.156 4.804z" fill="#df646e"/><path d="m420.4 175.46c-3.25 2.09-5.98 3.57-7.39 4.31-.66.35-1.44.36-2.11.03-5.52-2.72-30.6-16.08-30.24-33.7.16-7.84 5.7-14.79 13.07-16.9-2.47 3.03-3.98 6.85-4.07 10.9-.29 14.27 20.06 28.87 30.74 35.36z" fill="#dc4955"/></g><path d="m439.92 189.17c-6.26 0-12.17 2.42-16.64 6.81l-9.84 9.69c-.78.77-2.04.76-2.82-.01l-9.57-9.56c-4.45-4.44-10.47-6.93-16.76-6.93h-24.13c-3.485 0-6.31-2.825-6.31-6.31v-35.008c0-.476.177-.932.485-1.295.957-1.128 1.82-2.317 2.575-3.568 3.72-6.19 5.69-13.29 5.69-20.53v-28.5h-21.75v88.9c0 10.665 8.645 19.31 19.31 19.31h24.13c2.84 0 5.57 1.13 7.58 3.13l16.33 16.3c2.08 2.08 5.45 2.09 7.55.03l16.65-16.38c2.01-1.97 4.71-3.08 7.52-3.08h23.84c8.46 0 15.64-5.44 18.25-13h-42.09z" fill="#e8e8e8"/><path d="m319.723 146.915-28.903.979c-4.578 0-8.939 1.95-11.991 5.361l-16.784 18.471c-3.001 3.354-8.258 3.333-11.232-.045l-15.524-18.797c-3.055-3.47-7.454-5.458-12.077-5.458l-33.133 1.854c-14.81 0-26.82-12.01-26.82-26.82v-88.14c0-9.755 5.211-18.298 13-22.99 4.036-2.431 8.764-3.83 13.818-3.83h132.704c14.81 0 26.816 12.006 26.816 26.816v88.145c0 5.054-1.398 9.782-3.829 13.818-4.692 7.789-16.289 10.636-26.045 10.636z" fill="#f8f7f7"/><path d="m345.77 136.28c-4.7 7.79-13.24 13-22.99 13h-31.97c-4.58 0-8.94 1.95-12 5.36l-16.74 18.71c-3 3.36-8.26 3.34-11.23-.04l-16.35-18.57c-3.05-3.47-7.45-5.46-12.08-5.46h-32.33c-14.81 0-26.82-12.01-26.82-26.82v-88.14c0-9.75 5.21-18.29 13-22.99v111.13c0 7.63 6.19 13.82 13.82 13.82h32.33c8.36 0 16.32 3.59 21.84 9.87l10.03 11.39c1.18 1.35 3.28 1.35 4.48.01l10.37-11.58c5.51-6.17 13.4-9.69 21.68-9.69z" fill="#e8e8e8"/><path d="m254.01 51.328c1.367 1.288 3.512 1.25 4.886-.03 4.896-4.564 11.525-7.361 18.774-7.34 14.869.044 27.003 12.253 26.792 26.928-.292 20.312-22.997 37.551-37.082 46.304-4.098 2.547-7.161 3.245-9.035 4.222-1.012.528-2.216.541-3.241.035-8.46-4.174-45.394-21.99-44.849-49.021.234-11.604 6.31-23.493 17.021-27.106 2.558-.863 5.274-1.342 8.083-1.361 7.252-.053 13.801 2.798 18.651 7.369z" fill="#df646e"/><path d="m267.38 117.19c-4.1 2.55-7.47 4.38-9.34 5.35-1.01.53-2.22.54-3.24.04-8.46-4.18-46.94-24.66-46.4-51.69.23-11.61 8.16-21.96 18.88-25.56-4.75 4.89-7.74 11.49-7.88 18.56-.46 23.11 32.98 44.86 47.98 53.3z" fill="#dc4955"/><path d="m282.253 357.911h-52.054l2.461 34.706-2.461 18.349.008.01c2.348 2.71 3.989 5.915 6.92 7.854 11.141 7.371 26.663 8.018 37.66 1.404 3.024-1.819 4.995-6.419 7.45-9.25l.016-.018v-22.046l-2.104-3.452z" fill="#e3a76f"/><path d="m336.598 433.358-27.228-11.219-27.12-8.246c-13.731 15.849-38.325 17.279-52.05 1.426l-52.346 18.039c-11.249 4.635-18.59 15.6-18.59 27.766l1 41.375 9.996 2h65.7l21.266-4.819 18.844 4.819h79.118v-43.375c0-12.166-7.341-23.13-18.59-27.766z" fill="#ccf49f"/><path d="m243.2 357.91h-13v31.01 22.05c1.632 1.885.898 5.061 2.8 6.498 2.166 1.636 7.003 1.468 9.42 2.522h.01l-.009-24.681c0-1.289 1.199-2.241 2.454-1.948 3.616.843 7.674 1.73 11.345 1.73 9.52 0 18.23-2.22 26.03-6.17v-31.01h-39.05z" fill="#d6995c"/><path d="m241.277 419.99-30.105 12.878-30.362 12.512c-6.41 2.64-10.55 8.82-10.55 15.74v43.38h-13v-43.38c0-12.16 7.34-23.13 18.59-27.76l27.09-11.16 12.358-3.817 14.362-6.447c3.489 4.03 7.077 6.074 11.617 8.054z" fill="#b3e59f"/><path d="m309.37 422.14c-.65.76-1.09 1.26-1.13 1.31-18.93 22.55-30.2 50.55-32.17 79.94v1.11h-40.11v-.72c-1.59-25.553-10.211-50.075-24.788-70.911-2.474-3.537-3.996-6.635-6.808-9.947l-.3-.39 26.135-10.532c3.492 4.034 7.688 6.011 12.23 7.992 13.304 5.802 29.575 2.797 39.811-9.012l.01-.01z" fill="#f8f7f7"/><path d="m242.42 419.99-31.25 12.88c-2.47-3.54-5.12-6.97-7.93-10.28l-.3-.39 27.26-11.23c2.4 2.77 5.13 5.06 8.08 6.86.27.17.54.33.81.48 1.09.63 2.2 1.18 3.33 1.68z" fill="#e8e8e8"/><path d="m312.83 299.17c0-37.668-18.945-67.852-56.613-67.852s-54.747 30.445-54.747 68.114c0 6.288-2.875 12.867-1.747 19.315 5.63 32.181 25.113 63.339 56.494 63.339 33.414 0 53.339-35.327 57.414-69.6.518-4.363-.801-9.062-.801-13.316z" fill="#e3a76f"/><path d="m314.411 299.523c0-27.544-10.988-51.258-31.615-62.024-.653.818-1.995.303-1.77-.894-7.182-3.4-15.466-5.286-24.809-5.286-37.668 0-58.194 30.536-58.194 68.204 0 6.288.575 12.776 1.703 19.224.875-1.161 2.074-2.01 3.216-3.084 9.854-9.272 23.992-9.604 25.498-19.3.188-1.211 1.334-2.002 2.515-1.674 11.209 3.111 29.408-3.99 35.495-16.315.587-1.189 2.127-1.466 3.124-.592 5.691 4.991 13.186 4.862 16.44 4.518.932-.098 1.81.455 2.113 1.341 5.659 16.542 21.174 10.473 25.5 28.846.52-4.364.784-8.71.784-12.964z" fill="#d6995c"/><g><path d="m319.562 248.297c-.524-.151-1.504-.337-2.317-.479-.64-.112-1.016-.8-.739-1.388 1.53-3.248 2.255-6.95 1.907-10.851-.894-10.019-9.009-18.123-19.03-18.997-6.512-.568-12.472 1.841-16.676 6.015-.572.568-1.531.285-1.686-.506-2.287-11.734-12.617-20.591-25.021-20.591-6.067 0-11.635 2.123-16.013 5.662-.435.351-1.054.288-1.413-.14-3.85-4.591-9.614-7.522-16.075-7.522-10.642 0-19.428 7.918-20.805 18.183-.065.483-.453.848-.94.876-2.348.135-4.625.54-6.798 1.184-12.407 3.677-20.107 15.7-20.107 29.3 0 7.719 2.87 13.577 7.66 18.894.176.195.267.443.251.705-.129 2.035-.7 11.563.941 20.316 3 16 15.321 20.404 15.321 20.404 0-4.716 2.286-6.522 4.92-8.699 6.115-5.055 16.674-5.967 19.337-15.288.139-.486.603-.803 1.1-.716 1.61.282 5.056.841 7.12.841 15.333 0 28.42-9.59 33.608-23.096.267-.695 1.191-.818 1.653-.233 4.487 5.682 11.437 9.33 19.239 9.33 2.3 0 4.524-.321 6.634-.914.516-.145 1.051.147 1.208.659 6.138 20.049 21.493 13.58 21.493 32.293 10.057-4.542 16.069-20.067 18.936-30.384 3.009-10.83-3.298-21.85-13.708-24.858z" fill="#855b51"/></g><g><path d="m202.94 300.66c-2.63 2.18-4.345 5.216-4.345 9.936 0 0-14.095-5.096-17.095-21.096-1.64-8.75-1.17-18.19-1.04-20.23.02-.26-.08-.51-.25-.7-4.79-5.32-7.71-12.35-7.71-20.07 0-13.6 9.05-25.08 21.46-28.75-6.41 5.5-10.46 13.65-10.46 22.75 0 7.72 2.92 14.75 7.71 20.07.17.19.27.44.25.7-.13 2.04-.6 11.48 1.04 20.23 1.61 8.57 6.37 13.98 10.44 17.16z" fill="#724d44"/></g></g><g><g><path d="m407.581 186.522c1.367.675 2.858 1.012 4.351 1.012 1.564 0 3.128-.37 4.547-1.109 7.969-4.154 33.991-19.331 34.29-40.213.426-12.516-10.931-25.39-25.015-25.16-4.942 0-9.703 1.416-13.774 4.05-4.04-2.636-8.745-4.05-13.628-4.05-13.008-.138-24.898 11.286-25.193 24.9-.438 21.671 26.237 36.532 34.422 40.57zm-9.301-50.47h.07c2.554 0 4.998.979 6.889 2.762.001.001.002.002.003.003 3.752 3.533 9.657 3.535 13.44.006 1.918-1.787 4.428-2.771 7.07-2.771 4.017.067 9.757 3.266 10.018 9.944-.142 9.884-14.146 20.352-23.899 25.863-9.858-5.306-23.92-15.527-23.717-25.604.11-5.398 4.842-10.166 10.126-10.203z"/><path d="m95.446 186.523c1.367.674 2.857 1.011 4.349 1.011 1.564 0 3.128-.37 4.547-1.109 7.968-4.154 33.99-19.331 34.29-40.214.425-12.514-10.933-25.389-25.016-25.159-4.942 0-9.702 1.416-13.774 4.05-4.088-2.668-8.872-4.087-13.805-4.05-13.519.096-24.742 11.267-25.017 24.9-.436 21.671 26.238 36.532 34.426 40.571zm-9.302-50.471h.07c2.554 0 4.998.979 6.888 2.762.001.001.002.002.003.003 3.751 3.532 9.655 3.536 13.44.006 1.917-1.787 4.428-2.771 7.07-2.771 4.017.067 9.757 3.266 10.018 9.944-.142 9.884-14.146 20.352-23.9 25.863-9.857-5.306-23.919-15.527-23.715-25.604.109-5.399 4.841-10.166 10.126-10.203z"/><path d="m48.023 209.669h24.13c.86 0 1.67.335 2.279.942l16.334 16.302c2.499 2.493 5.792 3.741 9.086 3.741 3.264 0 6.528-1.225 9.02-3.678l16.65-16.381c.607-.598 1.411-.927 2.263-.927h23.841c14.782 0 26.808-12.025 26.808-26.808v-28.12c3.638 1.316 7.558 2.037 11.644 2.037h32.336c2.467 0 4.817 1.063 6.447 2.913l16.349 18.573c2.833 3.219 6.918 5.074 11.206 5.091h.06c4.266 0 8.34-1.82 11.186-5.001l16.743-18.714c1.627-1.819 3.96-2.862 6.401-2.862h31.977c3.688 0 7.238-.592 10.57-1.673v27.757c0 14.782 12.025 26.808 26.808 26.808h24.13c.86 0 1.67.335 2.279.942l16.334 16.302c2.499 2.493 5.793 3.741 9.087 3.741 3.263 0 6.527-1.225 9.02-3.678l16.651-16.382c.607-.597 1.411-.926 2.263-.926h23.841c14.781 0 26.807-12.025 26.807-26.808v-69.595c0-14.782-12.025-26.808-26.807-26.808h-106.668v-52.142c0-18.921-15.394-34.315-34.316-34.315h-61.1c-4.143 0-7.5 3.357-7.5 7.5s3.357 7.5 7.5 7.5h61.1c10.65 0 19.315 8.665 19.315 19.315v88.146c0 10.651-8.665 19.316-19.315 19.316h-31.977c-6.703 0-13.111 2.865-17.581 7.86l-16.755 18.715-16.348-18.573c-4.477-5.085-10.931-8.002-17.707-8.002h-32.336c-10.651 0-19.316-8.665-19.316-19.316v-88.146c0-10.65 8.665-19.315 19.316-19.315h36.604c4.142 0 7.5-3.357 7.5-7.5s-3.358-7.5-7.5-7.5h-36.604c-18.922 0-34.316 15.394-34.316 34.315v52.144h-107.739c-14.782 0-26.808 12.025-26.808 26.808v69.595c0 14.782 12.026 26.807 26.808 26.807zm415.742-108.21c6.51 0 11.807 5.297 11.807 11.808v69.595c0 6.511-5.297 11.808-11.807 11.808h-23.841c-4.813 0-9.353 1.858-12.782 5.233l-15.143 14.896-14.834-14.805c-3.44-3.434-8.013-5.325-12.875-5.325h-24.13c-6.511 0-11.808-5.297-11.808-11.808v-37.547c5.433-6.073 8.745-14.083 8.745-22.854v-21.002h106.668zm-427.55 11.808c0-6.511 5.297-11.808 11.808-11.808h107.739v21.002c0 8.178 2.88 15.693 7.672 21.595v38.805c0 6.511-5.297 11.808-11.808 11.808h-23.841c-4.812 0-9.351 1.858-12.782 5.233l-15.142 14.896-14.834-14.805c-3.441-3.434-8.013-5.325-12.875-5.325h-24.13c-6.511 0-11.808-5.297-11.808-11.808v-69.593z"/><path d="m200.902 70.734c-.623 30.886 38.556 52.638 50.575 58.567 1.541.761 3.223 1.141 4.905 1.141 1.763 0 3.524-.417 5.124-1.25 11.728-6.112 50.025-28.376 50.454-58.199.635-17.525-15.351-34.916-34.374-34.535-7.709 0-15.094 2.501-21.141 7.106-6.067-4.659-13.442-7.135-21.14-7.106-18.591.131-34.024 15.507-34.403 34.276zm34.511-19.276c.046-.001.092-.001.138-.001 4.943 0 9.667 1.89 13.314 5.328v.001c4.222 3.979 10.874 3.978 15.144-.002 3.686-3.437 8.505-5.326 13.577-5.326 9.209-.16 19.63 8.177 19.376 19.32-.239 16.603-21.64 33.924-40.626 44.177-19.267-9.875-40.78-26.914-40.438-43.918.214-10.54 9.149-19.506 19.515-19.579z"/><path d="m493.882 454.288v-109.245c0-44.963-36.58-81.543-81.543-81.543-12.923 0-25.791 3.102-37.213 8.97-3.685 1.893-5.137 6.414-3.244 10.098 1.893 3.685 6.415 5.137 10.098 3.244 9.444-4.852 19.658-7.312 30.359-7.312 36.692 0 66.543 29.851 66.543 66.543v96.015c-.205-.089-.4-.192-.607-.277h.001l-37.772-15.565v-14.662c14.434-14.412 25.532-37.524 25.532-58.785 0-27.382-12.19-48.897-32.61-57.555-1.855-.786-3.949-.79-5.813-.016-1.292.616-3.653 2.039-4.443 5.32-4.521 20.634-20.788 36.822-41.443 41.242l-17.166 3.674c-2.883.557-5.895 4.017-5.912 8.835.519 21.055 11.432 43.373 25.527 57.378v14.569l-29.838 12.295c-2.406-2.97-5.279-5.573-8.54-7.713v-84.756c0-13.748 4.155-26.941 12.016-38.153 2.378-3.392 1.557-8.068-1.835-10.446-3.393-2.378-8.068-1.556-10.446 1.835-9.64 13.748-14.734 29.919-14.734 46.765v77.813l-41.044-16.912v-28.491c18.79-15.22 29.923-42.602 31.994-69.54 9.833-7.056 15.575-21.327 18.749-32.751 2.173-7.822.843-16.172-3.651-22.909-2.84-4.259-6.763-7.587-11.296-9.692.45-2.5.565-5.067.336-7.646-1.226-13.752-12.097-24.604-25.85-25.804-5.139-.447-10.224.504-14.75 2.649-5.53-10.635-16.641-17.76-29.287-17.76-5.599 0-11.063 1.424-15.901 4.087-4.959-3.924-11.096-6.087-17.599-6.087-12.651 0-23.401 8.117-27.112 19.673-17.451 3.297-30.388 18.464-30.388 36.827 0 8.367 2.767 16.402 7.851 22.956-.134 4.211-.12 11.976 1.277 19.426 2.626 14.004 11.918 21.343 17.511 24.579.668 4.894 1.616 9.767 2.864 14.526.879 2.827 4.531 6.609 9.156 5.354 4.007-1.05 6.404-5.149 5.354-9.156-1.334-5.093-2.302-10.335-2.875-15.58-.331-2.9.752-4.175 7.328-7.384 4.449-2.129 10.129-4.846 13.661-10.437 14.943 1.665 31.638-6.653 39.752-19.407 5.113 3.328 12.848 6.312 20.869 5.507 3.826 8.174 9.225 11.896 13.38 14.76 4.468 3.079 5.844 4.037 5.87 9.697-1.553 35.051-20.945 71.246-50.781 71.246-16.488 0-27.558-10.477-33.941-19.265-2.435-3.352-7.125-4.097-10.476-1.661-3.351 2.435-4.095 7.124-1.661 10.476 3.821 5.26 8.027 9.732 12.56 13.395v28.413c-12.355 5.09-37.576 15.483-49.702 20.479-6.018 2.479-11.116 6.386-14.998 11.226l-30.174-12.433v-23.061c10.57-9.38 19.59-23.103 24.348-38.146 2.146-.309 4.07-1.525 5.251-3.371 7.797-12.18 22.774-49.115-1.237-73.429-9.437-9.555-22.713-11.564-33.667-9.468-.46-1.002-.982-1.967-1.571-2.888-10.129-15.825-36.308-18.044-59.6-5.05-3.617 2.018-4.914 6.586-2.896 10.203 2.018 3.618 6.586 4.916 10.204 2.896 17.47-9.743 34.611-7.849 39.659.037 2.09 3.265 2.224 8.283.368 13.771-2.756 8.148-10.654 18.658-24.556 23.718-16.021 5.831-27.095 14.989-33.896 22.187-2.821-9.891-4.445-24.025-.572-36.869 1.196-3.966-1.05-8.15-5.016-9.346-3.968-1.195-8.15 1.049-9.346 5.016-6.92 22.952-.14 49.275 6.623 59.839 1.219 1.904 3.22 3.137 5.43 3.4 4.814 14.741 13.739 28.186 24.145 37.438v23.122c-.687.302-37.464 15.401-38.193 15.757-11.987 5.136-19.714 16.807-19.714 29.881v23.635c0 9.655 7.855 17.511 17.51 17.511h449.8c9.655 0 17.51-7.854 17.51-17.51v-23.637c.001-5.98-1.627-11.661-4.527-16.565zm-194.093-186.006c-.551-1.967-1.88-3.624-3.68-4.589s-3.915-1.153-5.857-.523c-1.698.551-3.465.83-5.252.83-5.646 0-10.912-2.796-14.087-7.48-1.604-2.366-4.411-3.615-7.249-3.22-2.833.397-5.193 2.371-6.085 5.09-3.849 11.729-14.731 19.61-27.079 19.61-1.391 0-4.758-.518-6.593-.867-3.989-.76-7.856 1.789-8.731 5.753-.647 2.936-2.874 4.263-8.184 6.803-3.961 1.895-9.182 4.392-12.563 9.177-2.356-2.404-4.646-5.885-5.558-10.747-1.638-8.735-.915-18.568-.908-18.66.163-2.086-.553-4.145-1.974-5.68-3.862-4.171-5.99-9.598-5.99-15.278 0-12.244 9.585-22.119 21.821-22.48 3.785-.112 6.893-3.028 7.246-6.799.652-6.968 6.427-12.222 13.434-12.222 4.237 0 8.151 1.952 10.739 5.355 1.258 1.655 3.147 2.714 5.216 2.923 2.068.209 4.131-.45 5.696-1.82 3.282-2.875 7.49-4.458 11.849-4.458 9.164 0 16.851 6.855 17.879 15.945.338 2.987 2.427 5.484 5.308 6.344 2.887.864 5.998-.085 7.917-2.398 2.876-3.468 7.108-5.233 11.629-4.837 6.392.558 11.642 5.799 12.211 12.193.242 2.712-.313 5.387-1.604 7.737-1.21 2.201-1.238 4.862-.074 7.088s3.365 3.722 5.863 3.983c3.299.28 6.62 1.918 9.237 5.52 2.07 3.104 2.682 6.957 1.677 10.571-2.105 7.58-4.746 13.906-7.61 18.435-2.521-3.967-5.944-6.326-8.793-8.289-4.298-2.963-7.694-5.304-9.851-13.01zm85.075 87.148c23.08-4.939 41.872-21.375 50.09-43.055 10.199 7.961 16.081 22.065 16.081 39.395 0 26.914-23.422 58.051-38.703 58.051-14.161 0-35.309-26.506-38.337-52.064zm-141.959 141.57c-2.753-25.828-12.49-50.775-27.923-71.652l13.451-5.542c7.619 6.752 17.475 10.552 27.785 10.553h.007c10.332 0 20.211-3.815 27.8-10.551l13.238 5.455c-15.523 20.872-25.351 45.869-28.156 71.737zm68.729-65.816 22.106 9.109c8.474 3.491 13.948 11.668 13.948 20.832v35.875h-63.461c2.897-23.913 12.458-46.919 27.407-65.816zm-55.417-41.598c6.639 0 12.824-1.204 18.536-3.389v21.774c-4.979 4.723-11.597 7.387-18.527 7.387-.001 0-.003 0-.004 0-6.941-.001-13.569-2.675-18.522-7.381v-21.762c5.848 2.22 12.043 3.371 18.517 3.371zm-106.453 107.414h-13.08l13.08-15.185zm.089-38.272-32.967 38.272h-34.13l-34.383-46.031 28.915-11.914c6.224 5.219 14.124 8.135 22.367 8.137h.006c8.241 0 16.139-2.914 22.371-8.138l29.119 11.998c-.687 2.479-1.132 5.045-1.298 7.676zm-4.338-160.977c13.055 13.22 8.944 33.27 3.796 45.834-4.92-4.879-11.985-11.134-20.541-16.61-5.374-3.44-9.723-8.007-12.347-12.878 2.761-3.898 4.963-8.122 6.47-12.578 1.014-2.999 1.648-5.987 1.916-8.895 6.238-1.277 14.877-.774 20.706 5.127zm-85.536 56.395c5.322-5.931 14.841-14.364 29.279-19.619 6.063-2.207 11.628-5.344 16.479-9.191 3.756 5.47 8.85 10.369 14.946 14.272 7.742 4.956 14.174 10.741 18.512 15.088-5.785 24.626-25.951 45.125-39.542 45.125-13.598-.001-34.054-20.849-39.674-45.675zm39.675 60.674c4.331 0 8.774-1.022 13.171-2.892v15.265c-3.606 3.202-8.28 4.998-13.164 4.998-.001 0-.002 0-.004 0-4.874-.001-9.539-1.791-13.16-5.003v-15.283c4.399 1.882 8.839 2.915 13.157 2.915zm-71.064 79.669v-23.635c0-5.189 2.264-9.963 6.033-13.228l29.41 39.374h-32.933c-1.384 0-2.51-1.126-2.51-2.511zm136.174-33.364c0-9.164 5.475-17.342 13.948-20.832l21.92-9.032c14.855 18.91 24.317 41.871 27.158 65.739h-63.025v-35.875zm197.924 35.875v-35.875c0-3.529-.508-6.963-1.432-10.24l22.978-9.469c.291 18.896 2.041 38.753 12.553 55.584zm36.487-66.777v-8.656c4.379 2.082 8.819 3.254 13.157 3.254 4.341 0 8.786-1.166 13.171-3.268.001.019-.002 7.926.001 8.705 0 22.508-.007 45.734-13.164 62.849-13.159-17.087-13.165-40.338-13.165-62.868.001-.006 0-.011 0-.016zm84.235 64.267c0 1.384-1.126 2.51-2.51 2.51h-53.014c10.517-16.847 12.267-36.696 12.559-55.583l32.115 13.233h.001c6.59 2.715 10.849 9.075 10.849 16.203z"/></g></g></g></svg>