<?xml version="1.0" encoding="iso-8859-1"?>
<!-- Generator: Adobe Illustrator 19.0.0, SVG Export Plug-In . SVG Version: 6.00 Build 0)  -->
<svg version="1.1" id="Capa_1" xmlns="http://www.w3.org/2000/svg" xmlns:xlink="http://www.w3.org/1999/xlink" x="0px" y="0px"
	 viewBox="0 0 496.944 496.944" style="enable-background:new 0 0 496.944 496.944;" xml:space="preserve">
<g>
	<path style="fill:#F0BC5E;" d="M96.944,336.472c24.112,0,45.088,13.344,56,33.04c10.912-19.696,31.888-33.04,56-33.04
		c1.968,0,3.904,0.12,5.824,0.296c1.376-5.216,2.176-10.656,2.176-16.296c0-2.712-0.224-5.376-0.552-8h-7.448c-40,0-48-24-72-24
		s-48,32-48,32c0,5.64,0.8,11.08,2.176,16.296C93.04,336.592,94.976,336.472,96.944,336.472z"/>
	<path style="fill:#F0BC5E;" d="M149.6,424.472h6.696h112c2.992-7.408,4.648-15.512,4.648-24c0-2.712-0.224-5.376-0.552-8h-7.448
		c-40,0-48-24-72-24c-11.56,0-23.12,7.424-32,15.12v8.88h-8c-40,0-48-24-72-24s-48,32-48,32c0,8.488,1.656,16.592,4.656,24H149.6z"
		/>
	<path style="fill:#F0BC5E;" d="M225.744,256.472l8,80l0.52,5.224c22.752,9.816,38.68,32.432,38.68,58.776h176.8l14.4-144H225.744z"
		/>
</g>
<path d="M344.944,256.472c-39.696,0-72,32.296-72,72c0,39.704,32.304,72,72,72s72-32.296,72-72
	C416.944,288.768,384.64,256.472,344.944,256.472z M344.944,384.472c-30.88,0-56-25.128-56-56s25.12-56,56-56s56,25.128,56,56
	S375.824,384.472,344.944,384.472z"/>
<path d="M496.944,48.472v-48h-137.76c-12.184,0-22.432,9.128-23.832,21.216l-12.464,106.784H192.944v48h16.76l12.432,124.296
	c-8.6-30.144-36.328-52.296-69.192-52.296c-34.312,0-63.04,24.144-70.224,56.32l-66.552-139.76l-14.448,6.88L77.568,331.2
	c-30.304,8.488-52.624,36.288-52.624,69.272c0,5.44,0.672,10.776,1.856,16H12l-12,24l28,56h220.944h28.944h170.296l32-320h16.76v-48
	H374.008l10-80H496.944z M225.096,330.368c-0.28-0.064-0.552-0.152-0.832-0.216c0.2-1.496,0.248-3.016,0.36-4.52L225.096,330.368z
	 M262.624,416.472h-95.536c1.184-5.224,1.856-10.56,1.856-16c0-10.896-2.504-21.192-6.856-30.464
	c10.296-15.776,27.92-25.536,46.856-25.536c30.88,0,56,25.128,56,56C264.944,405.944,264.16,411.304,262.624,416.472z
	 M152.944,264.472c30.88,0,56,25.128,56,56c0,2.704-0.248,5.384-0.624,8.04c-21.64,0.192-41.936,10.232-55.36,26.824
	c-13.088-16.208-33.032-26.64-55.392-26.832c-0.376-2.656-0.624-5.336-0.624-8.032C96.944,289.6,122.064,264.472,152.944,264.472z
	 M40.944,400.472c0-30.872,25.12-56,56-56s56,25.128,56,56c0,5.472-0.784,10.832-2.32,16H43.264
	C41.728,411.304,40.944,405.944,40.944,400.472z M248.944,480.472H37.888l-8-16h203.056v-16H21.888l-4-8l4-8H284l4,8l-4,8h-35.056
	v16H276l-8,16H248.944z M480.944,160.472h-32v16h15.16l-30.4,304H285.888l20-40l-12-24H279.08c1.192-5.224,1.864-10.56,1.864-16
	c0-27.864-15.936-52.024-39.144-63.992l-16.016-160.008h207.16v-16h-224v-16h272V160.472z M339,128.472l12.24-104.928
	c0.472-4.032,3.888-7.072,7.944-7.072h121.76v16H369.88l-12,96H339z"/>
<g>
</g>
<g>
</g>
<g>
</g>
<g>
</g>
<g>
</g>
<g>
</g>
<g>
</g>
<g>
</g>
<g>
</g>
<g>
</g>
<g>
</g>
<g>
</g>
<g>
</g>
<g>
</g>
<g>
</g>
</svg>
