<svg id="Capa_1" enable-background="new 0 0 512 512" height="512" viewBox="0 0 512 512" width="512" xmlns="http://www.w3.org/2000/svg"><g><path d="m472.459 409.704c3.095-11.251 11.957-20.113 23.208-23.208 5.163-1.42 8.833-5.974 8.833-11.329v-194.45c0-5.354-3.671-9.908-8.833-11.329-11.251-3.095-20.113-11.957-23.208-23.208-1.42-5.163-5.974-8.833-11.329-8.833h-89.979l-33.802 20.904-156.124 236.467 4.273 23.82h275.632c5.355 0 9.909-3.671 11.329-8.834z" fill="#f6e266"/><path d="m495.667 169.388c-11.251-3.095-20.113-11.957-23.208-23.208-1.42-5.163-5.974-8.833-11.329-8.833h-26.965c5.354 0 9.908 3.671 11.329 8.833 3.095 11.251 11.957 20.113 23.208 23.208 5.163 1.42 8.833 5.974 8.833 11.329v194.451c0 5.354-3.671 9.909-8.833 11.329-11.251 3.095-20.113 11.957-23.208 23.208-1.42 5.163-5.974 8.833-11.329 8.833h26.965c5.354 0 9.908-3.671 11.329-8.833 3.095-11.251 11.957-20.113 23.208-23.208 5.163-1.42 8.833-5.974 8.833-11.329v-194.451c0-5.354-3.67-9.908-8.833-11.329z" fill="#ecbe6b"/><path d="m50.87 137.347c-5.354 0-9.908 3.671-11.329 8.833-3.095 11.251-11.957 20.113-23.208 23.208-5.163 1.42-8.833 5.974-8.833 11.329v194.451c0 5.354 3.671 9.909 8.833 11.329 11.251 3.095 20.113 11.957 23.208 23.208 1.42 5.163 5.974 8.833 11.329 8.833h134.628l185.654-281.191z" fill="#dd636e"/><path d="m343.604 137.347-185.654 281.191h27.548l185.654-281.191z" fill="#c63d4f"/><g><path d="m360.715 390.018c4.143 0 7.5-3.357 7.5-7.5v-4.354c11.305-3.103 18.548-12.857 20.166-22.482 2.119-12.605-4.722-23.997-17.021-28.345-1.036-.366-2.089-.745-3.145-1.134v-21.263c5.143.833 8.968 2.661 9.092 2.722 3.696 1.838 8.187.339 10.039-3.354 1.858-3.702.362-8.209-3.34-10.066-.417-.208-6.978-3.435-15.791-4.411v-2.678c0-4.143-3.357-7.5-7.5-7.5s-7.5 3.357-7.5 7.5v3.722c-.26.072-.52.138-.78.216-8.321 2.506-14.534 9.602-16.215 18.519-1.546 8.203 1.132 16.153 6.988 20.746 2.626 2.06 5.807 3.95 10.007 5.901v27.518c-2.608-.491-4.758-1.527-7.998-3.647-3.467-2.267-8.115-1.296-10.383 2.17-2.268 3.467-1.296 8.115 2.17 10.383 6.145 4.02 10.669 5.634 16.211 6.214v3.624c0 4.141 3.357 7.499 7.5 7.499zm12.873-36.824c-.532 3.163-2.354 6.47-5.373 8.621v-19.525c5.928 3.047 5.772 8.532 5.373 10.904zm-21.123-34.641c-1.411-1.106-2.002-3.526-1.505-6.165.29-1.534 1.024-3.244 2.255-4.628v11.351c-.259-.186-.512-.371-.75-.558z"/><path d="m132.451 179.952c-3.817-1.602-8.216.194-9.818 4.014l-30.387 72.405c-1.603 3.819.194 8.215 4.014 9.818 3.843 1.611 8.225-.217 9.818-4.014l30.387-72.405c1.602-3.819-.194-8.214-4.014-9.818z"/><path d="m87.823 175.994c-11.539 0-20.927 10.363-20.927 23.103 0 12.738 9.388 23.102 20.927 23.102 11.538 0 20.926-10.363 20.926-23.102 0-12.74-9.388-23.103-20.926-23.103zm0 31.204c-3.213 0-5.927-3.71-5.927-8.102s2.714-8.103 5.927-8.103c3.212 0 5.926 3.711 5.926 8.103s-2.714 8.102-5.926 8.102z"/><path d="m139.906 225.498c-11.539 0-20.927 10.363-20.927 23.103s9.388 23.103 20.927 23.103 20.927-10.363 20.927-23.103-9.388-23.103-20.927-23.103zm0 31.205c-3.213 0-5.927-3.711-5.927-8.103s2.714-8.103 5.927-8.103 5.927 3.711 5.927 8.103-2.714 8.103-5.927 8.103z"/><path d="m462.986 211.597h-61.726c-4.143 0-7.5 3.357-7.5 7.5s3.357 7.5 7.5 7.5h61.726c4.143 0 7.5-3.357 7.5-7.5s-3.357-7.5-7.5-7.5z"/><path d="m470.486 248.064c0-4.143-3.357-7.5-7.5-7.5h-81.726c-4.143 0-7.5 3.357-7.5 7.5s3.357 7.5 7.5 7.5h81.726c4.143 0 7.5-3.357 7.5-7.5z"/><path d="m74.396 337.576h64.381c4.143 0 7.5-3.357 7.5-7.5s-3.357-7.5-7.5-7.5h-64.381c-4.143 0-7.5 3.357-7.5 7.5s3.358 7.5 7.5 7.5z"/><path d="m74.396 370.213h86.381c4.143 0 7.5-3.357 7.5-7.5s-3.357-7.5-7.5-7.5h-86.381c-4.143 0-7.5 3.357-7.5 7.5s3.358 7.5 7.5 7.5z"/><path d="m504.5 329.81c4.143 0 7.5-3.357 7.5-7.5v-141.593c0-8.604-5.898-16.236-14.344-18.56-8.691-2.391-15.575-9.274-17.966-17.965-2.323-8.446-9.955-14.346-18.561-14.346h-40.167c2.414-4.27 3.799-9.195 3.799-14.44 0-16.235-13.209-29.444-29.444-29.444h-22.263c-8.712 0-16.549 3.807-21.944 9.84-5.396-6.033-13.233-9.84-21.944-9.84h-22.263c-16.235 0-29.444 13.209-29.444 29.444 0 5.245 1.385 10.17 3.799 14.44h-167.102c-4.143 0-7.5 3.357-7.5 7.5s3.357 7.5 7.5 7.5c5.28 0 195.414.004 214.201.004l-5.985 4.427c-8.007 5.923-10.819 16.435-6.841 25.564.79 1.812.686 3.84-.288 5.562-.973 1.723-2.654 2.858-4.615 3.117l-8.174 1.08c-4.106.543-6.995 4.312-6.453 8.418.541 4.093 4.297 6.997 8.418 6.453 4.155-1.177 16.942.599 23.885-11.69 3.312-5.861 3.668-12.762.978-18.933-1.169-2.683-.342-5.771 2.011-7.512l19.818-14.658 3.287 2.431c-5.197 7.872-167.747 254.07-172.935 261.928h-130.593c-1.903 0-3.55-1.335-4.097-3.323-3.786-13.763-14.688-24.664-28.45-28.45-1.988-.547-3.323-2.193-3.323-4.097v-194.45c0-1.903 1.335-3.55 3.323-4.097 13.763-3.786 24.664-14.688 28.45-28.45.547-1.988 2.193-3.323 4.097-3.323h33.299c4.143 0 7.5-3.357 7.5-7.5s-3.357-7.5-7.5-7.5h-33.299c-8.604 0-16.236 5.899-18.56 14.345-2.391 8.691-9.274 15.575-17.966 17.966-8.445 2.322-14.344 9.954-14.344 18.559v194.451c0 8.604 5.899 16.236 14.345 18.56 8.691 2.391 15.575 9.274 17.966 17.966 2.323 8.445 9.955 14.345 18.56 14.345h410.26c8.605 0 16.237-5.899 18.561-14.345 2.391-8.691 9.274-15.575 17.966-17.966 8.445-2.323 14.344-9.955 14.344-18.56v-22.871c0-4.143-3.357-7.5-7.5-7.5s-7.5 3.357-7.5 7.5v22.871c0 1.903-1.335 3.55-3.322 4.097-13.763 3.786-24.664 14.688-28.45 28.45-.547 1.988-2.193 3.323-4.098 3.323h-261.694c4.955-7.505 163.071-246.988 167.037-252.996l4.454 3.294c2.353 1.741 3.18 4.83 2.011 7.512-2.69 6.17-2.334 13.071.977 18.933 3.312 5.862 9.038 9.729 15.712 10.611 8.462 1.097 8.296 1.146 9.166 1.146 3.704 0 6.927-2.746 7.426-6.519.542-4.106-2.347-7.875-6.453-8.418l-8.174-1.08c-1.961-.259-3.644-1.396-4.616-3.117s-1.077-3.749-.287-5.562c3.979-9.129 1.166-19.641-6.841-25.564l-5.097-3.77.433-.656c14.145-.001 85.757-.004 85.945-.004 1.904 0 3.551 1.335 4.098 3.323 3.786 13.763 14.688 24.664 28.45 28.45 1.987.547 3.322 2.193 3.322 4.097v141.592c-.001 4.142 3.356 7.5 7.499 7.5zm-131.445-228.848h22.263c7.965 0 14.444 6.479 14.444 14.444 0 7.939-6.438 14.398-14.367 14.44-13.234 0-23.45 0-36.784 0v-14.44c-.001-7.965 6.479-14.444 14.444-14.444zm-80.596 14.444c0-7.965 6.479-14.444 14.444-14.444h22.263c7.965 0 14.444 6.479 14.444 14.444v14.44h-36.784c-7.929-.041-14.367-6.501-14.367-14.44z"/></g></g></svg>