<svg id="Layer_1" data-name="Layer 1" xmlns="http://www.w3.org/2000/svg" xmlns:xlink="http://www.w3.org/1999/xlink" viewBox="0 0 1600 284"><defs><style>.cls-1{fill:none;}.cls-2{clip-path:url(#clip-path);}.cls-3{fill:url(#linear-gradient);}.cls-4{fill:url(#linear-gradient-2);}</style><clipPath id="clip-path"><rect class="cls-1" width="1600" height="568"/></clipPath><linearGradient id="linear-gradient" x1="380.39" y1="879.1" x2="379.7" y2="879.1" gradientTransform="matrix(-1364.64, 1786.21, 1550.76, 1184.76, -844850.03, -1719190.73)" gradientUnits="userSpaceOnUse"><stop offset="0" stop-color="#015fbd"/><stop offset="1" stop-color="#015fbd"/></linearGradient><linearGradient id="linear-gradient-2" x1="380.43" y1="879.01" x2="379.7" y2="879.01" gradientTransform="matrix(-1751.19, 899.46, 1034.02, 1100.19, -243233.83, -1308360.4)" gradientUnits="userSpaceOnUse"><stop offset="0" stop-color="#106ecc"/><stop offset="1" stop-color="#106ecc"/></linearGradient></defs><title>Mask Group 1</title><g class="cls-2"><g id="Mask_Group_1" data-name="Mask Group 1"><path id="Bg_Shape" data-name="Bg Shape" class="cls-3" d="M-1213.68,986.4s-52.51-38-139.52-106.51c4.41-131.34,42.11-545.72,459.39-511.13C-112.39,433.54,0-76.88,457.05,53.24c633.74,180.43,784.13-257.45,1479.88,215.48C1931.32,278,1769.28,651.06,1489,1019,1091.18,1541.38,247.66,2096.5,247.66,2096.5L-218,1744.44l-144.16-111.37L-775,1318.9l-274.17-206.82Z"/><path id="Bg_Shape-2" data-name="Bg Shape-2" class="cls-4" d="M-665.71,361.47s-34-34.19-88.69-94.29c41-81.78,169.68-297.31,515.41-194C408.44,266.65,528.84-77.34,1022.3,100.81c610,220.2,662.25-289.1,1280.69,131.53-17.94,11.5-2038.24,1113.23-2038.24,1113.23L-32.22,1033l-91.26-98.25-262.7-278.37-175-183.71Z"/></g></g></svg>